<svg aria-hidden="true" style="position:absolute;width:0;height:0" xmlns="http://www.w3.org/2000/svg" overflow="hidden"><defs><symbol id="tagline" viewBox="0 0 32 32"><path fill="var(--color1, #afb1b8)" d="M16.1 15.6a1 1 0 01-.2-.7v-1l.2-.6c.2-.2.4-.3.7-.3.4 0 .6.1.7.2.2.2.2.4.2.6v.3h-.5v-.5l-.1-.1h-.5v1.9h.5v-.6h.6v.2c0 .3 0 .5-.2.7l-.6.2c-.3 0-.6-.1-.7-.3zm2.4 0c-.2-.1-.3-.3-.3-.7v-1c0-.2.1-.5.3-.7.1 0 .3-.2.7-.2s.5.1.7.3c.1.1.2.3.2.7v1c0 .3 0 .5-.2.7l-.7.2c-.3 0-.6-.1-.7-.3zm1-.2v-1.6-.3H19.1 18.9V15.4h.1a.4.4 0 00.3 0h.1zm1.3-2.3h.6l.4 1.9.5-2h.6v2.8h-.4V14l-.5 2h-.3l-.5-2v2h-.5V13zm2.8 0h1c.5 0 .8.2.8.8s-.3.7-.9.7h-.3v1.2h-.6v-2.7zm.8 1.2h.2l.1-.1.1-.3v-.3l-.2-.1h-.4v.8h.2zm1.8-1.2h.6l.7 2.7h-.6l-.1-.6h-.6l-.1.6h-.6l.7-2.7zm.5 1.8l-.2-1.2-.2 1.2h.4zM28 13h.5l.7 1.5v-1.5h.5v2.7h-.4l-.7-1.6v1.6h-.6v-2.7zm2.8 1.7l-.6-1.7h.5l.4 1 .4-1h.5l-.6 1.7v1h-.6v-1zM17 17v.2h-.4v1h-.3v-1H16V17H17zm1.5 1.3h-.2l-.2-.4h-.6l-.1.4h-.2l.5-1.3h.2l.6 1.3zm-1-.4h.6l-.2-.5v-.2.2l-.3.5zm2 .3H19.8v-.4h-.2v-.1h.5v.5l-.4.1h-.2-.3L19 18l-.2-.2v-.2-.3l.2-.2.2-.1a1 1 0 01.5 0H20v.2h-.2v-.1h-.3-.4l-.1.2v.5l.1.1.4.2zm1.8 0h.7-.8V17h.1v1.1zm1.3 0h-.1V17h.2v1.3zm.8-1.2l.9 1v-1h.1v1.3h-.1l-.9-1v1h-.1v-1.2zm2.5 0v.2h-.7v.4h.5v.1h-.5v.4h.7v.2h-1V17h1zM5.2 9.3l8.8 2.1V19l-8.8-2.2V9.3zm-.6-.7v8.6l9.9 2.4V11L4.6 8.6z"/><path fill="var(--color1, #afb1b8)" d="M10 23.6L0 21v-8.5L10 15v8.5z"/><path fill="var(--color1, #afb1b8)" d="M4.8 9.2l8.6 2-3.7 3.3-8.6-2.2 3.7-3.1zm-.2-.6l-4.6 4L10 15l4.5-4-9.9-2.4zm5.9 14.5l4-3.5-4-1V23z"/></symbol><symbol id="brand" viewBox="0 0 32 32"><path fill="var(--color1, #afb1b8)" d="M2.4 23.7l.2.5v.4l-.3.2c-.2.2-.5.3-.8.3H0v-3.2h1.4l.8.2.2.3.1.4c0 .1 0 .3-.2.5l-.4.2.5.2zm-1.7-.4h.6l.4-.1V23l.1-.1v-.2l-.1-.1-.4-.1H.7v.8zm1 1.2l.2-.2V24l-.1-.2H.7v.8h.6l.5-.1zm3.7.6l-.8-1.2h-.3V25h-.7v-3.2h1.3l.9.3c.2.2.3.4.3.7s0 .5-.2.6l-.6.3.8 1.3h-.7zm-1.1-1.7h.5c.4 0 .6-.1.6-.4v-.2l-.1-.2-.5-.1h-.5v1zm4.8 1H7.8l-.3.7h-.7L8.1 22h.7l1.3 3h-.7l-.3-.5zM9 24l-.5-1.3L8 24h1zm5 1h-.7l-1.5-2v2H11v-3h.6l1.6 2v-2h.7v3zm3.9-.6l-.6.5a2 2 0 01-1 .2H15v-3.2h1.3c.3 0 .6 0 1 .2l.5.6c.2.2.2.5.2.8l-.2.8zm-.8-.1a1.1 1.1 0 000-1.5 1 1 0 00-.8-.3h-.6v2h.6c.3 0 .6 0 .8-.2zM9.6 4.5s8.8 3 8.6 7.4v7.6s-8.8-3-8.6-7.6V4.5zm16.6 13.2c1.6-1 3.5-1.7 5.5-1.9v-2.3c-2.3.8-4.2 2.2-5.5 4.1z"/><path fill="var(--color1, #afb1b8)" d="M25.1 18.4c1.4-2.6 3.8-4.5 6.6-5.4V6.2s-12.6 4.4-12.3 10.7v10.6l1.5-.5v-1c.3-3 1.8-5.7 4.2-7.6z"/><path fill="var(--color1, #afb1b8)" d="M24 22.3c0-.7.1-1.4.4-2.1a9.8 9.8 0 00-2.7 6.4l2.4-1.2c-.2-1-.3-2-.2-3zm.4 0a9.5 9.5 0 00.2 3v-.1c3.4-1.9 7.3-4.8 7.1-8.3v-.3c-2.4.2-4.7 1.2-6.5 2.8-.4 1-.7 2-.8 3z"/></symbol><symbol id="foster" viewBox="0 0 32 32"><path fill="var(--color2, #2196f3)" d="M7.3 13.3c-.7 0-1.3.5-1.3 1.2 0 .6.6 1.1 1.3 1.1.7 0 1.3-.5 1.3-1.1 0-.7-.6-1.2-1.3-1.2zM17 13c0-1-.4-1.8-1.2-2.5-.6-.6-1.6-1-2.6-1s-2 .4-2.7 1c-.7.7-1.1 1.6-1.1 2.5v4.9s7.5-.8 7.5-5zM3.3 19.5c0 .6.3 1.2.8 1.6.5.5 1.1.7 1.8.7.8 0 1.4-.2 2-.7.4-.4.7-1 .7-1.6v-3.4s-5.3.5-5.3 3.4zM6 20l-.3-.1a.6.6 0 01-.3-.3v-.3c0-.1 0-.3.2-.3l.3-.2h.4l.3.2a.6.6 0 010 .8l-.3.1-.3.1zm5.4-.3h-.5v.5h-.2V19h.8v.3h-.6v.3h.5v.2zm1.3-.1l-.1.3c0 .2-.3.3-.5.3h-.3l-.2-.3v-.3-.4c.1-.2.3-.3.5-.3h.3l.2.3v.3zm-.3 0v-.4l-.3-.1-.2.1v.7h.4l.1-.3zm1.1.2l-.2-.2H13c-.2-.1-.3-.2-.3-.4l.1-.1s0-.2.2-.2h.5l.1.2.1.2h-.3v-.2H13v.2l.2.1.3.2.1.3-.1.2-.4.1H13l-.2-.2V20h.2c0 .1 0 .2.2.2h.2V20zm1.5-.7h-.4v1h-.3v-1h-.4V19h1v.2zm.9.5h-.5v.4h.6v.2h-1V19h1v.3h-.6v.3h.5v.2zm.7.1h-.2v.5h-.2V19h.4l.4.1.1.3v.3h-.2l.3.6h-.3l-.3-.5zm-.2-.2h.4V19.3h-.4v.3zm1.6.3v.4h-.3V19h.8l.2.2v.3l-.1.3H17.9zm0-.2h.3l.1-.1v-.1-.2H18v.3zm1.7 0H19v.4h.6v.2h-.9V19h.8v.3H19v.3h.5v.2zm1.2-.4h-.4v1h-.2v-1h-.4V19h1v.3zm1 .5h-.5v.3h.6v.2h-1V19h1v.3h-.6v.3h.4v.2zm.7 0h-.2v.5H22V19h.5l.3.1.1.3v.3h-.2l.3.6h-.3l-.2-.5zm-.2-.2H22.6l.1-.2v-.1h-.4v.3zm1.5.4v-.1l-.2-.1-.2-.1a.3.3 0 01-.2-.3v-.2l.2-.2h.5l.1.2v.2h-.2v-.1h-.4v.2h.3l.3.2v.6h-.7l-.1-.2-.1-.2h.3c0 .1 0 .2.2.2h.2V20z"/></symbol><symbol id="company" viewBox="0 0 32 32"><path fill="var(--color1, #afb1b8)" d="M5.3 30.3l.2.1-.5.3-.6.2-.6-.2-.4-.2-.3-.4a1.4 1.4 0 010-1.1l.3-.4.5-.2.6-.1H5l.4.3-.2.1h-.2l-.6-.2H4l-.4.3-.2.4v.8l.2.3.4.2h.6c.2 0 .4 0 .5-.2zm4.4-.8v.6l-.4.4-.4.2c-.4.2-.8.2-1.2 0l-.5-.2-.2-.4A1.4 1.4 0 017 29l.3-.4.4-.2c.4-.2.8-.2 1.2 0l.4.2a1.2 1.2 0 01.4 1zm-.4 0v-.3c0-.3-.3-.5-.5-.6a1.4 1.4 0 00-1 0l-.3.2-.2.4v.7c.1.3.3.5.6.6h.8l.3-.2c.2 0 .2-.2.2-.4l.1-.3zm3.5.5V30l1.1-1.6h.5v2.5h-.3v-2l-1 1.6H12.8l-1.2-1.6v2h-.4v-2.4h.5l1 1.5v.2zm3.7-.1v.9h-.4v-2.5h1.4l.3.2.2.2v.7l-.2.3h-.3l-.5.2h-.5zm0-.3h.8l.2-.2.1-.1v-.4l-.1-.2-.5-.2h-.5v1zm5.3 1.2h-.5L21 30h-1.3l-.3.7H19l1.1-2.5h.5l1.2 2.5zm-2-1H21l-.4-1-.2-.2v.3l-.5 1zm3.7-1.5l1.7 2v-2h.3v2.5h-.3l-1.7-2v2H23v-2.6h.3zm4.9 1.5v1H28v-1l-1-1.5h.4l.7 1v.3l.1-.2h.1l.7-1v-.1h.4l-1 1.5zM12.6 24h.6c2.5-1 4.7-2.6 6.3-4.7 1.5-2.2 2.3-4.6 2.3-7.1l-2.9-2.5a12.5 12.5 0 01-.9 8 15 15 0 01-5.4 6.3z"/><path fill="var(--color1, #afb1b8)" d="M11.6 23.8c2.7-1.5 4.7-3.8 5.8-6.4s1.3-5.6.5-8.3l-4-3.6c1.3 2.2 2 4.9 2 7.7 0 4.1-1.6 7.9-4.3 10.6zm14-8.7c-.9 3-2.6 5.4-4.9 7.1l-2.4 1.5c2.1-.6 4-1.5 5.5-2.7 1.4-1.2 2.7-2.7 3.4-4.4l-1.7-1.4z"/><path fill="var(--color1, #afb1b8)" d="M24.9 14.8l-2.4-2.1c0 2.4-.8 4.7-2.2 6.6s-3.4 3.7-5.9 4.8h1.7c2.2-.8 4.2-2.2 5.7-3.8a12 12 0 003-5.4v-.1zM11.9 4L9.1 1.6c-2.5.8-4.6 2.3-6.2 4.2a10.4 10.4 0 00.5 13.7c1.8 2.2 4.4 3.6 7.3 4.3a15 15 0 001.1-19.7zm19.5 10.3c0-3-1.5-6-4-8.2a14.5 14.5 0 00-14.3-2.7h.1l17.3 15c.6-1.3.9-2.7.9-4.1z"/></symbol><symbol id="taglinehere" viewBox="0 0 32 32"><path fill="var(--color1, #afb1b8)" d="M14.2 1.8h-.7-.8c-2.2 0-4.5.7-6.5 1.6l-.3.1v13.7l.6-.2a23 23 0 016.8-1.2v1.9h-.7c-3.1.1-6 1-8.6 2.4l.1-.1V2.5A18 18 0 0113.4 0h.3c1.1 0 2.2.2 3.3.5h-.1v1.7l-2.3-.4h-.4zm3 1.8h1.3c3.4 0 6.6-.9 9.4-2.4v17.3a18.1 18.1 0 01-12.9 2h.1V3.4c.7.2 1.4.3 2.2.3zm8.8.2l-.6.1-1.7.6a20.6 20.6 0 01-6.3.6H17v14h.4l1.2.1c2.7 0 5.2-.6 7.4-1.8h.2V3.8zM5.4 26a1 1 0 00-.7-.3h-.4a1 1 0 00-.6 1V29l.1.5.2.3.4.2H5c.4-.2.7-.5.7-1v-.2H5v.4l-.2.2h-.1l-.3-.1v-2.8a.3.3 0 01.2-.2c.1 0 .2 0 .3.2v.5h.7v-.3c0-.3-.1-.5-.3-.7zM9 26a1.1 1.1 0 00-1-.2c-.2 0-.3 0-.4.2l-.2.3V29.4l.2.3.3.2a1 1 0 00.8 0c.1 0 .2 0 .3-.2.2-.2.3-.4.3-.7V26.3L9 26zm-.3 3v.2l-.4.2s-.2 0-.3-.2l-.1-.3v-2.3l.1-.1.3-.2c.1 0 .2 0 .3.2l.1.3V29zm5 1v-4.3h-.5l-.8 2.3-.8-2.3H11V30h.6v-2.6l.6 1.8h.4l.6-1.8V30h.6zm3.5-4l-.3-.2h-1.4V30h.6v-1.7h.3l.6-.1.3-.3.2-.4a3 3 0 000-1.1l-.3-.4zm-.3 1.3v.3h-.2a.6.6 0 01-.3 0H16v-1.3h.6l.2.2v.8zm3.2-1.6h-.5l-1 4.3h.7l.1-1h.8l.2 1h.6l-1-4.3zm-.6 2.8l.3-1.5.3 1.5h-.6zm4.5-.2l-1-2.6h-.5V30h.6v-2.6L24 30h.6v-4.3H24v2.6zm3.7-2.6l-.5 1.7-.6-1.7H26l.9 2.5V30h.6V28l.8-2.4h-.6zm-24 5.4H4v.9h.2v-.9h.3-.8zm2.5 0l-.4.9H6v-.2h.5v.2h.3l-.5-1h-.1zm0 .5v-.4l.2.4h-.3zm2.4 0h.2v.2h-.4l-.2-.3c0-.2.2-.4.4-.4l.2.2H9c0-.2-.2-.3-.4-.3h-.4a.5.5 0 00-.1.5v.4a.5.5 0 00.5.1c.1 0 .3 0 .4-.2v-.4h-.4v.2zm2.5-.6h-.3v1h.7v-.2h-.4V31zm2 0H13v1h.2v-1zm2 .6l-.3-.6h-.2v1h.2v-.6l.3.6h.2v-1h-.2v.6zm1.9 0h.5v-.2H17V31h.5-.7v.9h.7v-.2H17v-.2zm4.5-.2h-.4V31H21v1h.2v-.4h.4v.4h.2v-1h-.2v.4zm1.9.2h.4v-.2h-.4V31h.5-.7v.9h.7v-.2h-.5v-.2zm2.4 0c.2 0 .3-.2.3-.3V31a.6.6 0 00-.4 0h-.4v.9h.2v-.4h.2l.3.4h.2l-.1-.2-.3-.2zm-.1-.2h-.2V31h.3a.1.1 0 110 .3.7.7 0 01-.1 0zm2 .2h.5v-.2h-.4V31h.5-.7v.9h.7v-.2h-.5v-.2z"/></symbol><symbol id="yaco" viewBox="0 0 32 32"><path fill="var(--color1, #afb1b8)" d="M6.1 0L11 4.5H2v22h23.2V18l4.8 4.5V0H6zM25 17.5L11.4 4.8H25v12.8zm-4.2 5.7h-15V8.5h1v13.7h14v1zM9.3 29.3l-.6 1.2-.5-1.2h-.5l.8 1.5v1H9v-1l.8-1.5h-.4zm.6 2.5l.2-.6h1l.2.6h.4l-.8-2.5h-.4l-1 2.5h.4zm.7-2l.4 1h-.7l.3-1zm2.3 1l-.2.3c0 .2.1.4.3.5l.5.2c.3 0 .5 0 .7-.2l.1.2h.5l-.4-.5c.2-.1.2-.4.2-.7h-.3l-.1.4-.5-.5.2-.1.2-.2v-.3-.4a.6.6 0 00-.5-.2c-.2 0-.3 0-.5.2l-.2.5.1.2.2.3-.3.3zm1 .5l-.4.2-.2-.1-.2-.3.2-.3h.1l.6.5zm-.4-1l-.2-.4v-.2h.5v.4l-.2.2zm4 1.3l.2-.6h-.4l-.1.3c-.1.2-.2.2-.5.2l-.4-.2-.1-.7v-.2c0-.2 0-.4.2-.6l.4-.1h.4v.5h.5c0-.3 0-.5-.3-.7l-.7-.2s-.3 0-.4.2l-.4.3a1.4 1.4 0 00-.1.7v.2l.1.5c.1.3.2.4.4.5h.4l.7-.1zm2.4-.3l.1-.7v-.1l-.1-.7a1 1 0 00-.8-.5c-.2 0-.4 0-.6.2-.1 0-.3.2-.3.4-.2.1-.2.3-.2.6v.1c0 .2 0 .4.2.7 0 .2.2.3.3.4l.6.1.4-.1.5-.4zm-.4-1.4l.1.6v.1l-.1.7-.4.2H19l-.4-.2-.1-.7v-.1-.7l.6-.1.4.2z"/></symbol><symbol id="linkedin" viewBox="0 0 32 32"><path  d="M32 32V20.3c0-5.7-1.3-10.2-8-10.2a7 7 0 00-6.2 3.5v-3h-6.6V32h6.6V21.4c0-2.8.4-5.4 4-5.4 3.3 0 3.5 3.2 3.5 5.6V32H32zM.5 10.6h6.7V32H.5V10.6zM3.8 0C1.8 0 0 1.6 0 3.8 0 6 1.6 7.7 3.8 7.7a3.8 3.8 0 100-7.7z"/></symbol><symbol id="facebook" viewBox="0 0 32 32"><path  d="M21.3 5.3h3V.2L20 0c-4.2 0-7 2.7-7 7.5V12H8v5.8h4.8V32h5.6V17.6h4.5l.8-5.6h-5.3V8.2c0-1.6.5-3 2.7-3z"/></symbol><symbol id="twitter" viewBox="0 0 32 32"><path  d="M32 6c-1.1.6-2.4.9-3.8 1 1.3-.7 2.3-2 2.8-3.4-1.2.7-2.5 1.2-4.1 1.5a6.5 6.5 0 00-11.2 6A18.5 18.5 0 012.2 4c-.5 1-.9 2.1-.9 3.4 0 2.3 1.2 4.3 3 5.4-1.1 0-2.1-.2-3-.8 0 3.3 2.2 6 5.3 6.5a6.3 6.3 0 01-3.1.1c1 2.7 3.2 4.7 6.3 4.7A13 13 0 01-.1 26H0a18 18 0 0010 2.7A18.6 18.6 0 0028.7 9.6c1.5-1 2.4-2 3.4-3.4z"/></symbol><svg aria-hidden="true" style="position:absolute;width:0;height:0" xmlns="http://www.w3.org/2000/svg" overflow="hidden"><defs><symbol id="instagram-2-1" viewBox="0 0 32 32"><path  d="M32 9.4c0-1.6-.3-2.8-.8-3.8-.3-1.1-1-2-1.8-2.9A8 8 0 0026.6.8 105.7 105.7 0 005 .8h.5a9 9 0 00-2.9 2A8 8 0 001 5.3C.5 6.6 0 7.7 0 9.6a106.3 106.3 0 00.9 17.7l-.1-.6c.4 1 1 2 1.8 2.7a8 8 0 002.8 2c1 .3 2.1.6 3.9.6a112.7 112.7 0 0017.6-.7h-.5c2.2-.8 4-2.5 4.8-4.7l.6-3.9A113.7 113.7 0 0032 9.3v.3zm-2.9 13c0 1.6-.3 2.4-.6 3a4.8 4.8 0 01-3 3c-.5.2-1.3.6-3 .6a108.1 108.1 0 01-16.4-.6h.5c-.7-.2-1.3-.6-1.8-1a6 6 0 01-1.1-2c-.3-.4-.7-1.4-.7-3A109.7 109.7 0 013.7 6v.6c.1-.7.6-1.3 1.1-1.8.5-.6 1.1-1 1.8-1.3.6-.1 1.6-.5 3.2-.5a108 108 0 0116.1.6h-.5a4 4 0 012 1.2c.4.5 1 1.1 1 1.8.4.6.6 1.4.7 3l.2 6.4-.2 6.7v-.3z"/><path fill="var(--color1, #afb1b8)" d="M16 7.8h-1.1A8.2 8.2 0 1016 24a8.2 8.2 0 000-16zm0 13.5a5.3 5.3 0 010-10.6 5.3 5.3 0 010 10.6zM26.6 7.5a2 2 0 01-3.9 0 2 2 0 013.9 0z"/></symbol></defs></svg><symbol id="astronaut" viewBox="0 0 32 32"><path fill="var(--color2, #2196f3)" d="M32 4.5c0-.2-.3-.3-.5-.3l-1.9-.3-.8-1.8c-.2-.3-.8-.3-1 0L27 4l-1.8.3a.5.5 0 00-.3.9L26 6.4l-.3 2a.5.5 0 00.8.5l1.7-1L30 9h.2a.5.5 0 00.6-.6l-.4-1.9L31.8 5c.2 0 .2-.3.2-.5zM29.5 6l-.2.4.2 1.2-1-.6h-.4l-1 .6.1-1.2V6l-1-.8 1.2-.2c.2 0 .3-.1.4-.3l.5-1 .5 1 .4.2 1.1.2-.8.8zm-3.4 14.6h-1v1h1v-1zm0 2.2h-1v1h1v-1zm1.1-1.1h-1v1h1v-1zm-2.1 0H24v1h1v-1zm-2.7 4.8h-1v1h1v-1zm0 2.1h-1v1h1v-1zm1-1h-1v1h1v-1zm-2 0h-1.1v1h1v-1zM16 24.1h-1v1.1h1v-1zm0 2.2h-1v1h1v-1zm1-1h-1v1h1v-1zm-2 0h-1.1v1h1v-1zM5.8 6H4.8v1h1v-1zm0 2.1H4.8v1.1h1v-1zM7 7.2H5.8v1h1v-1zm-2.2 0h-1v1h1v-1z"/><path fill="var(--color4, #212121)" d="M24.7 14.2c-.3-.4-.7-.7-1.1-.8-.5 0-1 .1-1.4.4l-1.3 1-1.9 1.4-1.4-.6a7 7 0 00-2.8-13.2A7 7 0 009 13H6l-3.2 1.6-2 1a1.8 1.8 0 101.8 3L4 18l2.3-1.2h1.3l-5.4 5.4-1.4 1.3a1.6 1.6 0 000 2.3 1.6 1.6 0 002.4 0l1.4-1.3 1.7-1.2.9.9-1.8 1.7-1.3 1.4a1.6 1.6 0 000 2.3 1.7 1.7 0 002.4 0l3.4-3.4 1-1 5.2-5.7 3.5.5a.5.5 0 00.2 0h.1l3.2-2.2h.1l1.3-1.3a1.8 1.8 0 00.2-2.3zM2.2 17.8h-.6a.7.7 0 01-.2-1.3l1.3-.6.3 1 .2.4-1 .4zM5.7 16l-1.6.7-.3-.7-.1-.5 2-1V16zm15-6.7c0 1-.1 1.8-.5 2.6l-4.2-2c0-.5-.3-1-.8-1.3l1.5-4.9c2.4.8 4.1 3 4.1 5.6zM9 9.3a5.9 5.9 0 016.6-5.8L14 8.2c-1 0-1.9.8-1.9 1.9v.2a1.8 1.8 0 003.5.7l3.9 1.8A5.9 5.9 0 019 9.3zm6 .8c0 .5-.4.8-.9.8s-.8-.3-.8-.8.4-.8.8-.8.8.4.8.8zm-12.5 15c-.2.3-.6.3-.9 0a.6.6 0 010-.8l1-1 .9.9-1 1zm3.2 3.7c-.2.3-.6.3-.8 0a.6.6 0 010-.8l1-.9.4.4.4.4-1 1zm3.5-3.4l-1.7 1.8-.5-.4-.4-.5 1.8-1.8v-.3h.1V24l-.1-.2-1.6-1.6h-.1l-.1-.1h-.7l-1.7 1.4-1-1 2.5-2.3 4.4 4.3-1 .9zm6.8-7l-.4.1-4.8 5.3-4.4-4.3 2.9-2.8.1-.4c0-.3-.2-.5-.5-.5H6.7v-1.6h3a7 7 0 006.4 2l2.5 1 .1.8.2.9-3-.5zm4 .2l-.3-1.6 1.5-1 .4.4.5.8-2 1.4zm3.8-2.9l-.8.8-1-1.2.9-.6c.1-.2.3-.2.5-.2a.7.7 0 01.5 1.2z"/><path fill="var(--color4, #212121)" d="M13.6 18.6l-2.2-2.2a.5.5 0 00-.7 0l-2.2 2.2a.5.5 0 000 .7l2.2 2.1.3.2c.1 0 .3 0 .4-.2l2.2-2.1a.5.5 0 000-.7zm-2.5 1.7l-1.4-1.4 1.4-1.3 1.3 1.3-1.3 1.4zM17 5L17 6.1s1.8.5 1.8 2.2h1c0-2-1.7-3-2.6-3.2zm2.6 4.3h-1v1h1v-1z"/></symbol><symbol id="diagram" viewBox="0 0 32 32"><path fill="var(--color2, #2196f3)" d="M14.9 15H16v4.7h-1.1V15zm4.3 2.1h1v2.6h-1v-2.6zm-8.5 1.6h1v1h-1v-1zm-3.2-.6h1v1.6h-1v-1.6z"/><path fill="var(--color4, #212121)" d="M1.6 28.3h25.6c.9 0 1.6-.7 1.6-1.6v-2.2c0-.9-.7-1.6-1.6-1.6h-.5V9.7l3-2.9.7.2a1.6 1.6 0 10-1.5-1l-2.2 2.2V6.9c0-.8-.8-1.6-1.6-1.6H3.7c-.9 0-1.6.8-1.6 1.6v16h-.5c-1 0-1.6.8-1.6 1.6v2.2c0 1 .7 1.6 1.6 1.6zM30.4 4.8h.2a.5.5 0 11-.2 1.1.5.5 0 010-1zM3.2 7c0-.2.2-.5.5-.5h21.4c.2 0 .5.3.5.5v2.3l-1.1 1V8c0-.3-.2-.5-.5-.5H4.8c-.3 0-.5.2-.5.5v13.4c0 .3.2.5.5.5H24c.3 0 .5-.2.5-.5v-9.7l1.1-1v12.2H3.2V7zM8 14A1.6 1.6 0 109 16.6l1.8 1 .7-.1 4-4.5 3.8 3h.7l3.4-3.3v8.1H5.3V8.5h18.2v2.7l-3.8 3.6-4-3a.6.6 0 00-.7.1l-4 4.6-1.4-.8v-.2c0-.9-.7-1.6-1.6-1.6zm.5 1.6a.5.5 0 01-1 0 .5.5 0 011 0zm3.2 8.5h5.4v.5c0 .4-.3.6-.6.6h-4.2c-.3 0-.6-.2-.6-.6V24zm-10.6.5c0-.2.2-.5.5-.5h9v.5c0 1 .8 1.6 1.7 1.6h4.2c1 0 1.6-.6 1.6-1.6V24h9.1c.3 0 .5.3.5.5v2.2c0 .3-.2.5-.5.5H1.6a.6.6 0 01-.6-.5v-2.2z"/></symbol><symbol id="clock" viewBox="0 0 32 32"><path fill="var(--color4, #212121)" d="M31.3 15.3a15.3 15.3 0 10-19.9 14.6h.5l.3-.5L16 17.2a2 2 0 10-.8-3.6L10 8.5a.6.6 0 10-1 .9l5.2 5c-.2.3-.2.6-.2.9 0 .6.3 1.1.7 1.5l-3.6 11.7a14 14 0 1110.6-.4h-.1l-.4-1.9a.6.6 0 00-1-.3l-3.9 3.4a.6.6 0 00.2 1.1l5 1.6h.1a.6.6 0 00.7-.7l-.4-1.9c5.5-2.3 9.3-7.7 9.3-14zM16 14.6a.6.6 0 010 1.3.6.6 0 010-1.3zm2.1 14.9l2.2-2 .6 2.9-2.8-1z"/><path fill="var(--color2, #2196f3)" d="M15.4 3.2v1.3a.6.6 0 001.2 0V3.2a.6.6 0 00-1.2 0zM3.9 14.6a.7.7 0 000 1.4h1.3a.6.6 0 000-1.3H3.9zM28 16a.6.6 0 000-1.3h-1.3a.6.6 0 000 1.3h1.3z"/></symbol><symbol id="antenna" viewBox="0 0 32 32"><path fill="var(--color4, #212121)" d="M30.8 22l-8.5-8.4 1-4.6.7.1a2.1 2.1 0 10-2-1.4l-5 .6L9 0 8.6 0l-.4.1-1.5 1.5c-.2.3-.2.6 0 .8l.8.8a14.9 14.9 0 002.7 17.7v6.8H3.6a2.7 2.7 0 00-2.6 2.7v1c0 .3.2.6.5.6h24.5c.3 0 .6-.3.6-.6v-1c0-1.5-1.2-2.7-2.7-2.7h-6.4V25a14.6 14.6 0 0010.1-1.5l.8.8.4.2s.3 0 .4-.2l1.5-1.5c.2-.2.2-.5 0-.8zM23.3 6.3c.2-.2.4-.3.7-.3A1 1 0 0124 8a1 1 0 01-.7-1.8zm-1.2 3.5l-.6 3-1.2-1.2 1.8-1.8zm-.6-.9l-2 2-1.4-1.6 3.4-.4zm2.5 20c1 0 1.6.7 1.6 1.6v.5H2.1v-.5c0-1 .7-1.6 1.6-1.6H24zm-7.5-2.1v1h-5.3v-1h5.3zm-5.3-1.1v-4c0-1.3 1.2-2.4 2.7-2.4 1.5 0 2.6 1 2.6 2.3v4.1h-5.3zm6.4-1.7v-2.4c0-1.8-1.7-3.4-3.7-3.4-1.4 0-2.6.6-3.3 1.8a13.8 13.8 0 01-2.2-16l18.5 18.8a13.6 13.6 0 01-9.4 1.1h.1zm11.3-.7l-.7-.8L8.6 2.7l-.8-.6.7-.8 8 8 13.2 13.1-.8.8z"/><path fill="var(--color2, #2196f3)" d="M13.9 20.3a1.6 1.6 0 100 3.2 1.6 1.6 0 100-3.2zm.4 2a.6.6 0 11-.4-1 .5.5 0 01.4 1z"/></symbol><symbol id="envelope-hover-1" viewBox="0 0 43 32"><path  d="M38.7 0H4C1.9 0 0 1.9 0 4v24c0 2.1 1.9 4 4 4h34.7c2.1 0 4-1.9 4-4V4c0-2.1-1.9-4-4-4zm0 2.7h.5L21.3 18 3.5 2.7h35.2zm0 26.6H4c-.7 0-1.3-.6-1.3-1.3V5.6l17.8 15.5.8.2.8-.2L40 5.3v22.4c0 .8-.5 1.4-1.3 1.4z"/></symbol><symbol id="smartphone-1" viewBox="0 0 20 32"><path  d="M17 0H3a3 3 0 00-3 3v26a3 3 0 003 3h14a3 3 0 003-3V3a3 3 0 00-3-3zM3 2h14c.6 0 1 .4 1 1v21H2V3c0-.6.4-1 1-1zm14 28H3a1 1 0 01-1-1v-3h16v3c0 .6-.4 1-1 1z"/><path d="M4.8 27.4v1.4c-.4.4-1.2.4-1.6 0a.8.8 0 010-1.4c.4-.2 1.2-.2 1.6 0z"/></symbol></defs></svg>