<svg aria-hidden="true" style="position:absolute;width:0;height:0" xmlns="http://www.w3.org/2000/svg" overflow="hidden"><defs><symbol id="tagline" viewBox="0 0 67 32"><path  d="M33.724 15.223a2.084 2.084 0 01-.43-1.42v.006-2.051c0-.628.142-1.106.428-1.433.284-.327.774-.489 1.468-.488.652 0 1.116.139 1.389.417.299.355.444.789.411 1.226v.482h-1.166v-.489a2.465 2.465 0 00-.034-.477.464.464 0 00-.166-.283l-.001-.001a.672.672 0 00-.373-.112l-.052.002h.002a.712.712 0 00-.447.118l.003-.002a.546.546 0 00-.193.309l-.001.004c-.03.14-.047.302-.047.467v.042-.002 2.488c-.019.24.033.48.149.698a.55.55 0 00.23.168l.004.001a.633.633 0 00.305.039H35.2a.63.63 0 00.414-.114l-.002.001a.503.503 0 00.174-.299v-.003c.027-.165.04-.332.036-.498v-.505h1.167v.461a1.866 1.866 0 01-.406 1.293l.003-.004c-.268.304-.725.457-1.397.457s-1.179-.163-1.466-.501zm4.859.022c-.295-.32-.442-.784-.442-1.399v-2.157c0-.609.147-1.07.442-1.383s.787-.469 1.478-.467c.686 0 1.176.156 1.471.467.294.313.444.774.444 1.383v2.156c0 .609-.149 1.077-.449 1.398s-.787.481-1.466.481-1.181-.163-1.479-.479zm2.021-.518c.106-.199.154-.419.14-.638v-2.641a1.18 1.18 0 00-.14-.632l.003.006a.558.558 0 00-.234-.17l-.004-.001a.622.622 0 00-.312-.037h.003a.643.643 0 00-.313.038l.004-.002a.569.569 0 00-.239.171l-.001.001c-.107.195-.154.41-.14.626V14.1c-.014.22.033.439.14.639a.732.732 0 00.246.158.832.832 0 00.605-.002l-.006.002a.723.723 0 00.246-.158v-.013zm2.777-4.825h1.256l.944 3.979.967-3.979h1.222l.124 5.743h-.904l-.097-3.991-.932 3.991h-.725l-.966-4.006-.09 4.006h-.913l.114-5.743zm5.92 0h1.957c1.127 0 1.691.543 1.691 1.631 0 1.041-.594 1.562-1.781 1.56h-.666v2.552h-1.208l.007-5.744zm1.672 2.454a.93.93 0 00.665-.182.928.928 0 00.174-.649l.001-.063c0-.163-.022-.321-.062-.471l.003.013a.43.43 0 00-.089-.158.502.502 0 00-.149-.114l-.003-.001a1.24 1.24 0 00-.476-.094l-.066.002h.003-.469v1.717h.469zm3.719-2.454h1.297l1.331 5.743h-1.126l-.263-1.324h-1.157l-.27 1.324h-1.143l1.331-5.743zm1.108 3.753l-.452-2.411-.452 2.411h.903zm2.594-3.753h.846l1.618 3.276V9.902h1.003v5.743h-.804l-1.628-3.42v3.42h-1.036l.002-5.743zm5.815 3.552l-1.345-3.545h1.133l.821 2.278.77-2.278h1.109l-1.329 3.546v2.19h-1.159v-2.19zM35.59 18.156v.3h-.986v2.334h-.413v-2.334H33.2v-.3h2.389zm3.089 2.634h-.328a.141.141 0 01-.081-.025.137.137 0 01-.052-.06v-.001l-.285-.626h-1.367l-.284.626a.168.168 0 01-.044.071.144.144 0 01-.082.025h-.326l1.208-2.634h.42l1.223 2.624zm-2-.978h1.14l-.484-1.072a1.765 1.765 0 01-.086-.235l-.003-.014-.045.14-.044.11-.478 1.07zm4.083.719c.076.004.151.004.228 0a1.41 1.41 0 00.193-.031c.059-.012.117-.028.174-.048.053-.018.107-.042.161-.065v-.592h-.487a.095.095 0 01-.061-.022.06.06 0 01-.018-.021.048.048 0 01-.006-.024V19.523h.937v1.01a1.792 1.792 0 01-.496.211l-.013.003c-.1.026-.2.043-.302.055a3.774 3.774 0 01-.353.016h-.015c-.212 0-.416-.036-.606-.102l.013.004a1.499 1.499 0 01-.486-.277l.002.002a1.276 1.276 0 01-.308-.409l-.003-.008a1.3 1.3 0 01-.111-.529v-.019-.015c0-.193.04-.377.112-.543l-.003.009c.069-.156.176-.299.311-.417.138-.119.302-.211.484-.273.206-.068.427-.101.647-.098.112 0 .225.007.336.023a1.62 1.62 0 01.529.172c.074.041.144.087.211.137l-.116.163a.101.101 0 01-.039.035h-.001a.112.112 0 01-.055.014.156.156 0 01-.075-.021h.001a1.595 1.595 0 01-.126-.066l.007.004a1.098 1.098 0 00-.154-.069l-.008-.002a1.522 1.522 0 00-.213-.057l-.009-.001a1.749 1.749 0 00-.29-.023h-.017.001-.015c-.162 0-.317.027-.462.076l.01-.003a1.022 1.022 0 00-.356.208.944.944 0 00-.222.321l-.002.006a1.234 1.234 0 00.003.887l-.003-.008a.938.938 0 00.242.332c.099.09.219.161.352.208.154.046.316.063.479.052zm3.85-.041h1.319v.3h-1.722v-2.634h.412l-.009 2.334zm2.691.3h-.412v-2.634h.412v2.634zm1.537-2.621a.2.2 0 01.063.047l1.766 1.985-.002-.047.002-.049v.002-1.963h.36v2.645h-.222a.196.196 0 01-.077-.016h.001a.23.23 0 01-.065-.05l-1.764-1.984v2.048h-.346v-2.634h.215c.023 0 .047.004.068.012zm5.23-.013v.289h-1.463v.87h1.186v.279h-1.186v.9h1.463v.289h-1.889v-2.628h1.889zM10.782 1.889l18.343 4.496v15.757l-18.343-4.494V1.888zM9.605.545v17.868l20.693 5.075V5.622L9.605.546z"/><path fill="var(--color1, #afb1b8)" d="M20.696 31.781L0 26.702V8.837l20.696 5.077v17.867z"/><path fill="var(--color1, #afb1b8)" d="M9.948 1.686l18.103 4.44-7.698 6.649L2.246 8.333l7.702-6.647zM9.605.545L0 8.837l20.696 5.077 9.603-8.294L9.606.545zM21.86 30.776l8.439-7.288-8.439-2.069v9.358z"/></symbol><symbol id="brand" viewBox="0 0 32 32"><path  d="M2.4 23.7l.2.5v.4l-.3.2c-.2.2-.5.3-.8.3H0v-3.2h1.4l.8.2.2.3.1.4c0 .1 0 .3-.2.5l-.4.2.5.2zm-1.7-.4h.6l.4-.1V23l.1-.1v-.2l-.1-.1-.4-.1H.7v.8zm1 1.2l.2-.2V24l-.1-.2H.7v.8h.6l.5-.1zm3.7.6l-.8-1.2h-.3V25h-.7v-3.2h1.3l.9.3c.2.2.3.4.3.7s0 .5-.2.6l-.6.3.8 1.3h-.7zm-1.1-1.7h.5c.4 0 .6-.1.6-.4v-.2l-.1-.2-.5-.1h-.5v1zm4.8 1H7.8l-.3.7h-.7L8.1 22h.7l1.3 3h-.7l-.3-.5zM9 24l-.5-1.3L8 24h1zm5 1h-.7l-1.5-2v2H11v-3h.6l1.6 2v-2h.7v3zm3.9-.6l-.6.5a2 2 0 01-1 .2H15v-3.2h1.3c.3 0 .6 0 1 .2l.5.6c.2.2.2.5.2.8l-.2.8zm-.8-.1a1.1 1.1 0 000-1.5 1 1 0 00-.8-.3h-.6v2h.6c.3 0 .6 0 .8-.2zM9.6 4.5s8.8 3 8.6 7.4v7.6s-8.8-3-8.6-7.6V4.5zm16.6 13.2c1.6-1 3.5-1.7 5.5-1.9v-2.3c-2.3.8-4.2 2.2-5.5 4.1z"/><path  d="M25.1 18.4c1.4-2.6 3.8-4.5 6.6-5.4V6.2s-12.6 4.4-12.3 10.7v10.6l1.5-.5v-1c.3-3 1.8-5.7 4.2-7.6z"/><path  d="M24 22.3c0-.7.1-1.4.4-2.1a9.8 9.8 0 00-2.7 6.4l2.4-1.2c-.2-1-.3-2-.2-3zm.4 0a9.5 9.5 0 00.2 3v-.1c3.4-1.9 7.3-4.8 7.1-8.3v-.3c-2.4.2-4.7 1.2-6.5 2.8-.4 1-.7 2-.8 3z"/></symbol> <symbol id="company" viewBox="0 0 32 32"><path  d="M5.3 30.3l.2.1-.5.3-.6.2-.6-.2-.4-.2-.3-.4a1.4 1.4 0 010-1.1l.3-.4.5-.2.6-.1H5l.4.3-.2.1h-.2l-.6-.2H4l-.4.3-.2.4v.8l.2.3.4.2h.6c.2 0 .4 0 .5-.2zm4.4-.8v.6l-.4.4-.4.2c-.4.2-.8.2-1.2 0l-.5-.2-.2-.4A1.4 1.4 0 017 29l.3-.4.4-.2c.4-.2.8-.2 1.2 0l.4.2a1.2 1.2 0 01.4 1zm-.4 0v-.3c0-.3-.3-.5-.5-.6a1.4 1.4 0 00-1 0l-.3.2-.2.4v.7c.1.3.3.5.6.6h.8l.3-.2c.2 0 .2-.2.2-.4l.1-.3zm3.5.5V30l1.1-1.6h.5v2.5h-.3v-2l-1 1.6H12.8l-1.2-1.6v2h-.4v-2.4h.5l1 1.5v.2zm3.7-.1v.9h-.4v-2.5h1.4l.3.2.2.2v.7l-.2.3h-.3l-.5.2h-.5zm0-.3h.8l.2-.2.1-.1v-.4l-.1-.2-.5-.2h-.5v1zm5.3 1.2h-.5L21 30h-1.3l-.3.7H19l1.1-2.5h.5l1.2 2.5zm-2-1H21l-.4-1-.2-.2v.3l-.5 1zm3.7-1.5l1.7 2v-2h.3v2.5h-.3l-1.7-2v2H23v-2.6h.3zm4.9 1.5v1H28v-1l-1-1.5h.4l.7 1v.3l.1-.2h.1l.7-1v-.1h.4l-1 1.5zM12.6 24h.6c2.5-1 4.7-2.6 6.3-4.7 1.5-2.2 2.3-4.6 2.3-7.1l-2.9-2.5a12.5 12.5 0 01-.9 8 15 15 0 01-5.4 6.3z"/><path d="M11.6 23.8c2.7-1.5 4.7-3.8 5.8-6.4s1.3-5.6.5-8.3l-4-3.6c1.3 2.2 2 4.9 2 7.7 0 4.1-1.6 7.9-4.3 10.6zm14-8.7c-.9 3-2.6 5.4-4.9 7.1l-2.4 1.5c2.1-.6 4-1.5 5.5-2.7 1.4-1.2 2.7-2.7 3.4-4.4l-1.7-1.4z"/><path  d="M24.9 14.8l-2.4-2.1c0 2.4-.8 4.7-2.2 6.6s-3.4 3.7-5.9 4.8h1.7c2.2-.8 4.2-2.2 5.7-3.8a12 12 0 003-5.4v-.1zM11.9 4L9.1 1.6c-2.5.8-4.6 2.3-6.2 4.2a10.4 10.4 0 00.5 13.7c1.8 2.2 4.4 3.6 7.3 4.3a15 15 0 001.1-19.7zm19.5 10.3c0-3-1.5-6-4-8.2a14.5 14.5 0 00-14.3-2.7h.1l17.3 15c.6-1.3.9-2.7.9-4.1z"/></symbol><symbol id="taglinehere" viewBox="0 0 32 32"><path  d="M14.2 1.8h-.7-.8c-2.2 0-4.5.7-6.5 1.6l-.3.1v13.7l.6-.2a23 23 0 016.8-1.2v1.9h-.7c-3.1.1-6 1-8.6 2.4l.1-.1V2.5A18 18 0 0113.4 0h.3c1.1 0 2.2.2 3.3.5h-.1v1.7l-2.3-.4h-.4zm3 1.8h1.3c3.4 0 6.6-.9 9.4-2.4v17.3a18.1 18.1 0 01-12.9 2h.1V3.4c.7.2 1.4.3 2.2.3zm8.8.2l-.6.1-1.7.6a20.6 20.6 0 01-6.3.6H17v14h.4l1.2.1c2.7 0 5.2-.6 7.4-1.8h.2V3.8zM5.4 26a1 1 0 00-.7-.3h-.4a1 1 0 00-.6 1V29l.1.5.2.3.4.2H5c.4-.2.7-.5.7-1v-.2H5v.4l-.2.2h-.1l-.3-.1v-2.8a.3.3 0 01.2-.2c.1 0 .2 0 .3.2v.5h.7v-.3c0-.3-.1-.5-.3-.7zM9 26a1.1 1.1 0 00-1-.2c-.2 0-.3 0-.4.2l-.2.3V29.4l.2.3.3.2a1 1 0 00.8 0c.1 0 .2 0 .3-.2.2-.2.3-.4.3-.7V26.3L9 26zm-.3 3v.2l-.4.2s-.2 0-.3-.2l-.1-.3v-2.3l.1-.1.3-.2c.1 0 .2 0 .3.2l.1.3V29zm5 1v-4.3h-.5l-.8 2.3-.8-2.3H11V30h.6v-2.6l.6 1.8h.4l.6-1.8V30h.6zm3.5-4l-.3-.2h-1.4V30h.6v-1.7h.3l.6-.1.3-.3.2-.4a3 3 0 000-1.1l-.3-.4zm-.3 1.3v.3h-.2a.6.6 0 01-.3 0H16v-1.3h.6l.2.2v.8zm3.2-1.6h-.5l-1 4.3h.7l.1-1h.8l.2 1h.6l-1-4.3zm-.6 2.8l.3-1.5.3 1.5h-.6zm4.5-.2l-1-2.6h-.5V30h.6v-2.6L24 30h.6v-4.3H24v2.6zm3.7-2.6l-.5 1.7-.6-1.7H26l.9 2.5V30h.6V28l.8-2.4h-.6zm-24 5.4H4v.9h.2v-.9h.3-.8zm2.5 0l-.4.9H6v-.2h.5v.2h.3l-.5-1h-.1zm0 .5v-.4l.2.4h-.3zm2.4 0h.2v.2h-.4l-.2-.3c0-.2.2-.4.4-.4l.2.2H9c0-.2-.2-.3-.4-.3h-.4a.5.5 0 00-.1.5v.4a.5.5 0 00.5.1c.1 0 .3 0 .4-.2v-.4h-.4v.2zm2.5-.6h-.3v1h.7v-.2h-.4V31zm2 0H13v1h.2v-1zm2 .6l-.3-.6h-.2v1h.2v-.6l.3.6h.2v-1h-.2v.6zm1.9 0h.5v-.2H17V31h.5-.7v.9h.7v-.2H17v-.2zm4.5-.2h-.4V31H21v1h.2v-.4h.4v.4h.2v-1h-.2v.4zm1.9.2h.4v-.2h-.4V31h.5-.7v.9h.7v-.2h-.5v-.2zm2.4 0c.2 0 .3-.2.3-.3V31a.6.6 0 00-.4 0h-.4v.9h.2v-.4h.2l.3.4h.2l-.1-.2-.3-.2zm-.1-.2h-.2V31h.3a.1.1 0 110 .3.7.7 0 01-.1 0zm2 .2h.5v-.2h-.4V31h.5-.7v.9h.7v-.2h-.5v-.2z"/></symbol><symbol id="yaco" viewBox="0 0 32 32"><path  d="M6.1 0L11 4.5H2v22h23.2V18l4.8 4.5V0H6zM25 17.5L11.4 4.8H25v12.8zm-4.2 5.7h-15V8.5h1v13.7h14v1zM9.3 29.3l-.6 1.2-.5-1.2h-.5l.8 1.5v1H9v-1l.8-1.5h-.4zm.6 2.5l.2-.6h1l.2.6h.4l-.8-2.5h-.4l-1 2.5h.4zm.7-2l.4 1h-.7l.3-1zm2.3 1l-.2.3c0 .2.1.4.3.5l.5.2c.3 0 .5 0 .7-.2l.1.2h.5l-.4-.5c.2-.1.2-.4.2-.7h-.3l-.1.4-.5-.5.2-.1.2-.2v-.3-.4a.6.6 0 00-.5-.2c-.2 0-.3 0-.5.2l-.2.5.1.2.2.3-.3.3zm1 .5l-.4.2-.2-.1-.2-.3.2-.3h.1l.6.5zm-.4-1l-.2-.4v-.2h.5v.4l-.2.2zm4 1.3l.2-.6h-.4l-.1.3c-.1.2-.2.2-.5.2l-.4-.2-.1-.7v-.2c0-.2 0-.4.2-.6l.4-.1h.4v.5h.5c0-.3 0-.5-.3-.7l-.7-.2s-.3 0-.4.2l-.4.3a1.4 1.4 0 00-.1.7v.2l.1.5c.1.3.2.4.4.5h.4l.7-.1zm2.4-.3l.1-.7v-.1l-.1-.7a1 1 0 00-.8-.5c-.2 0-.4 0-.6.2-.1 0-.3.2-.3.4-.2.1-.2.3-.2.6v.1c0 .2 0 .4.2.7 0 .2.2.3.3.4l.6.1.4-.1.5-.4zm-.4-1.4l.1.6v.1l-.1.7-.4.2H19l-.4-.2-.1-.7v-.1-.7l.6-.1.4.2z"/></symbol><symbol id="linkedin" viewBox="0 0 32 32"><path  d="M32 32V20.3c0-5.7-1.3-10.2-8-10.2a7 7 0 00-6.2 3.5v-3h-6.6V32h6.6V21.4c0-2.8.4-5.4 4-5.4 3.3 0 3.5 3.2 3.5 5.6V32H32zM.5 10.6h6.7V32H.5V10.6zM3.8 0C1.8 0 0 1.6 0 3.8 0 6 1.6 7.7 3.8 7.7a3.8 3.8 0 100-7.7z"/></symbol><symbol id="facebook" viewBox="0 0 32 32"><path  d="M21.3 5.3h3V.2L20 0c-4.2 0-7 2.7-7 7.5V12H8v5.8h4.8V32h5.6V17.6h4.5l.8-5.6h-5.3V8.2c0-1.6.5-3 2.7-3z"/></symbol><symbol id="twitter" viewBox="0 0 32 32"><path  d="M32 6c-1.1.6-2.4.9-3.8 1 1.3-.7 2.3-2 2.8-3.4-1.2.7-2.5 1.2-4.1 1.5a6.5 6.5 0 00-11.2 6A18.5 18.5 0 012.2 4c-.5 1-.9 2.1-.9 3.4 0 2.3 1.2 4.3 3 5.4-1.1 0-2.1-.2-3-.8 0 3.3 2.2 6 5.3 6.5a6.3 6.3 0 01-3.1.1c1 2.7 3.2 4.7 6.3 4.7A13 13 0 01-.1 26H0a18 18 0 0010 2.7A18.6 18.6 0 0028.7 9.6c1.5-1 2.4-2 3.4-3.4z"/></symbol><svg aria-hidden="true" style="position:absolute;width:0;height:0" xmlns="http://www.w3.org/2000/svg" overflow="hidden"><defs><symbol id="instagram" viewBox="0 0 32 32"><path d="M31.968 9.408c-.074-1.701-.349-2.869-.742-3.882a7.839 7.839 0 00-1.85-2.837l-.001-.001A7.906 7.906 0 0026.597.861l-.054-.018C25.524.449 24.362.176 22.661.101 20.949.019 20.405 0 16.059 0c-4.344 0-4.888.019-6.595.094-1.699.074-2.869.349-3.88.742a7.847 7.847 0 00-2.839 1.85l-.001.001A7.9 7.9 0 00.919 5.465l-.018.054C.506 6.538.232 7.7.157 9.401c-.082 1.712-.101 2.256-.101 6.602 0 4.344.019 4.888.094 6.595.075 1.701.35 2.869.744 3.882a7.915 7.915 0 001.849 2.837l.001.001c.8.813 1.77 1.443 2.832 1.843 1.019.395 2.182.67 3.882.744 1.707.075 2.251.094 6.595.094 4.346 0 4.89-.019 6.595-.094 1.701-.074 2.869-.349 3.882-.742a8.237 8.237 0 004.664-4.628l.019-.055c.394-1.019.669-2.182.744-3.882.075-1.707.093-2.251.093-6.595s-.006-4.888-.08-6.595zm-2.88 13.066c-.07 1.563-.333 2.406-.55 2.97a5.341 5.341 0 01-3.004 3.024l-.036.012c-.56.219-1.411.482-2.968.55-1.688.075-2.194.094-6.464.094-4.269 0-4.782-.019-6.464-.094-1.563-.069-2.406-.331-2.97-.55a4.953 4.953 0 01-1.836-1.192l-.001-.001a4.978 4.978 0 01-1.184-1.803L3.6 25.45c-.218-.563-.48-1.413-.549-2.97-.075-1.688-.094-2.195-.094-6.464 0-4.27.019-4.784.094-6.464.069-1.563.331-2.406.549-2.97a4.897 4.897 0 011.198-1.837l.002-.002a4.972 4.972 0 011.806-1.182l.034-.011c.56-.219 1.411-.48 2.968-.55 1.688-.074 2.195-.093 6.464-.093 4.275 0 4.782.019 6.464.093 1.563.069 2.406.331 2.97.55a4.91 4.91 0 011.837 1.194c.531.52.938 1.144 1.195 1.84.218.56.48 1.411.549 2.968.075 1.688.094 2.194.094 6.464 0 4.269-.019 4.768-.094 6.458z"/><path  d="M16.059 7.782a8.223 8.223 0 00-8.219 8.221 8.223 8.223 0 0016.442.008v-.009a8.223 8.223 0 00-8.221-8.221zm0 13.552a5.333 5.333 0 01.001-10.666h.001a5.334 5.334 0 110 10.668zM26.525 7.458a1.92 1.92 0 01-3.84 0 1.92 1.92 0 013.84 0z"/></symbol><symbol id="astronaut" viewBox="0 0 32 32"><path d="M32 4.5c0-.2-.3-.3-.5-.3l-1.9-.3-.8-1.8c-.2-.3-.8-.3-1 0L27 4l-1.8.3a.5.5 0 00-.3.9L26 6.4l-.3 2a.5.5 0 00.8.5l1.7-1L30 9h.2a.5.5 0 00.6-.6l-.4-1.9L31.8 5c.2 0 .2-.3.2-.5zM29.5 6l-.2.4.2 1.2-1-.6h-.4l-1 .6.1-1.2V6l-1-.8 1.2-.2c.2 0 .3-.1.4-.3l.5-1 .5 1 .4.2 1.1.2-.8.8zm-3.4 14.6h-1v1h1v-1zm0 2.2h-1v1h1v-1zm1.1-1.1h-1v1h1v-1zm-2.1 0H24v1h1v-1zm-2.7 4.8h-1v1h1v-1zm0 2.1h-1v1h1v-1zm1-1h-1v1h1v-1zm-2 0h-1.1v1h1v-1zM16 24.1h-1v1.1h1v-1zm0 2.2h-1v1h1v-1zm1-1h-1v1h1v-1zm-2 0h-1.1v1h1v-1zM5.8 6H4.8v1h1v-1zm0 2.1H4.8v1.1h1v-1zM7 7.2H5.8v1h1v-1zm-2.2 0h-1v1h1v-1z"/><path  d="M24.7 14.2c-.3-.4-.7-.7-1.1-.8-.5 0-1 .1-1.4.4l-1.3 1-1.9 1.4-1.4-.6a7 7 0 00-2.8-13.2A7 7 0 009 13H6l-3.2 1.6-2 1a1.8 1.8 0 101.8 3L4 18l2.3-1.2h1.3l-5.4 5.4-1.4 1.3a1.6 1.6 0 000 2.3 1.6 1.6 0 002.4 0l1.4-1.3 1.7-1.2.9.9-1.8 1.7-1.3 1.4a1.6 1.6 0 000 2.3 1.7 1.7 0 002.4 0l3.4-3.4 1-1 5.2-5.7 3.5.5a.5.5 0 00.2 0h.1l3.2-2.2h.1l1.3-1.3a1.8 1.8 0 00.2-2.3zM2.2 17.8h-.6a.7.7 0 01-.2-1.3l1.3-.6.3 1 .2.4-1 .4zM5.7 16l-1.6.7-.3-.7-.1-.5 2-1V16zm15-6.7c0 1-.1 1.8-.5 2.6l-4.2-2c0-.5-.3-1-.8-1.3l1.5-4.9c2.4.8 4.1 3 4.1 5.6zM9 9.3a5.9 5.9 0 016.6-5.8L14 8.2c-1 0-1.9.8-1.9 1.9v.2a1.8 1.8 0 003.5.7l3.9 1.8A5.9 5.9 0 019 9.3zm6 .8c0 .5-.4.8-.9.8s-.8-.3-.8-.8.4-.8.8-.8.8.4.8.8zm-12.5 15c-.2.3-.6.3-.9 0a.6.6 0 010-.8l1-1 .9.9-1 1zm3.2 3.7c-.2.3-.6.3-.8 0a.6.6 0 010-.8l1-.9.4.4.4.4-1 1zm3.5-3.4l-1.7 1.8-.5-.4-.4-.5 1.8-1.8v-.3h.1V24l-.1-.2-1.6-1.6h-.1l-.1-.1h-.7l-1.7 1.4-1-1 2.5-2.3 4.4 4.3-1 .9zm6.8-7l-.4.1-4.8 5.3-4.4-4.3 2.9-2.8.1-.4c0-.3-.2-.5-.5-.5H6.7v-1.6h3a7 7 0 006.4 2l2.5 1 .1.8.2.9-3-.5zm4 .2l-.3-1.6 1.5-1 .4.4.5.8-2 1.4zm3.8-2.9l-.8.8-1-1.2.9-.6c.1-.2.3-.2.5-.2a.7.7 0 01.5 1.2z"/><path  d="M13.6 18.6l-2.2-2.2a.5.5 0 00-.7 0l-2.2 2.2a.5.5 0 000 .7l2.2 2.1.3.2c.1 0 .3 0 .4-.2l2.2-2.1a.5.5 0 000-.7zm-2.5 1.7l-1.4-1.4 1.4-1.3 1.3 1.3-1.3 1.4zM17 5L17 6.1s1.8.5 1.8 2.2h1c0-2-1.7-3-2.6-3.2zm2.6 4.3h-1v1h1v-1z"/></symbol><symbol id="diagram" viewBox="0 0 32 32"><path  d="M14.9 15H16v4.7h-1.1V15zm4.3 2.1h1v2.6h-1v-2.6zm-8.5 1.6h1v1h-1v-1zm-3.2-.6h1v1.6h-1v-1.6z"/><path  d="M1.6 28.3h25.6c.9 0 1.6-.7 1.6-1.6v-2.2c0-.9-.7-1.6-1.6-1.6h-.5V9.7l3-2.9.7.2a1.6 1.6 0 10-1.5-1l-2.2 2.2V6.9c0-.8-.8-1.6-1.6-1.6H3.7c-.9 0-1.6.8-1.6 1.6v16h-.5c-1 0-1.6.8-1.6 1.6v2.2c0 1 .7 1.6 1.6 1.6zM30.4 4.8h.2a.5.5 0 11-.2 1.1.5.5 0 010-1zM3.2 7c0-.2.2-.5.5-.5h21.4c.2 0 .5.3.5.5v2.3l-1.1 1V8c0-.3-.2-.5-.5-.5H4.8c-.3 0-.5.2-.5.5v13.4c0 .3.2.5.5.5H24c.3 0 .5-.2.5-.5v-9.7l1.1-1v12.2H3.2V7zM8 14A1.6 1.6 0 109 16.6l1.8 1 .7-.1 4-4.5 3.8 3h.7l3.4-3.3v8.1H5.3V8.5h18.2v2.7l-3.8 3.6-4-3a.6.6 0 00-.7.1l-4 4.6-1.4-.8v-.2c0-.9-.7-1.6-1.6-1.6zm.5 1.6a.5.5 0 01-1 0 .5.5 0 011 0zm3.2 8.5h5.4v.5c0 .4-.3.6-.6.6h-4.2c-.3 0-.6-.2-.6-.6V24zm-10.6.5c0-.2.2-.5.5-.5h9v.5c0 1 .8 1.6 1.7 1.6h4.2c1 0 1.6-.6 1.6-1.6V24h9.1c.3 0 .5.3.5.5v2.2c0 .3-.2.5-.5.5H1.6a.6.6 0 01-.6-.5v-2.2z"/></symbol><symbol id="clock" viewBox="0 0 32 32"><path  d="M31.3 15.3a15.3 15.3 0 10-19.9 14.6h.5l.3-.5L16 17.2a2 2 0 10-.8-3.6L10 8.5a.6.6 0 10-1 .9l5.2 5c-.2.3-.2.6-.2.9 0 .6.3 1.1.7 1.5l-3.6 11.7a14 14 0 1110.6-.4h-.1l-.4-1.9a.6.6 0 00-1-.3l-3.9 3.4a.6.6 0 00.2 1.1l5 1.6h.1a.6.6 0 00.7-.7l-.4-1.9c5.5-2.3 9.3-7.7 9.3-14zM16 14.6a.6.6 0 010 1.3.6.6 0 010-1.3zm2.1 14.9l2.2-2 .6 2.9-2.8-1z"/><path  d="M15.4 3.2v1.3a.6.6 0 001.2 0V3.2a.6.6 0 00-1.2 0zM3.9 14.6a.7.7 0 000 1.4h1.3a.6.6 0 000-1.3H3.9zM28 16a.6.6 0 000-1.3h-1.3a.6.6 0 000 1.3h1.3z"/></symbol><symbol id="antenna" viewBox="0 0 32 32"><path  d="M30.8 22l-8.5-8.4 1-4.6.7.1a2.1 2.1 0 10-2-1.4l-5 .6L9 0 8.6 0l-.4.1-1.5 1.5c-.2.3-.2.6 0 .8l.8.8a14.9 14.9 0 002.7 17.7v6.8H3.6a2.7 2.7 0 00-2.6 2.7v1c0 .3.2.6.5.6h24.5c.3 0 .6-.3.6-.6v-1c0-1.5-1.2-2.7-2.7-2.7h-6.4V25a14.6 14.6 0 0010.1-1.5l.8.8.4.2s.3 0 .4-.2l1.5-1.5c.2-.2.2-.5 0-.8zM23.3 6.3c.2-.2.4-.3.7-.3A1 1 0 0124 8a1 1 0 01-.7-1.8zm-1.2 3.5l-.6 3-1.2-1.2 1.8-1.8zm-.6-.9l-2 2-1.4-1.6 3.4-.4zm2.5 20c1 0 1.6.7 1.6 1.6v.5H2.1v-.5c0-1 .7-1.6 1.6-1.6H24zm-7.5-2.1v1h-5.3v-1h5.3zm-5.3-1.1v-4c0-1.3 1.2-2.4 2.7-2.4 1.5 0 2.6 1 2.6 2.3v4.1h-5.3zm6.4-1.7v-2.4c0-1.8-1.7-3.4-3.7-3.4-1.4 0-2.6.6-3.3 1.8a13.8 13.8 0 01-2.2-16l18.5 18.8a13.6 13.6 0 01-9.4 1.1h.1zm11.3-.7l-.7-.8L8.6 2.7l-.8-.6.7-.8 8 8 13.2 13.1-.8.8z"/><path  d="M13.9 20.3a1.6 1.6 0 100 3.2 1.6 1.6 0 100-3.2zm.4 2a.6.6 0 11-.4-1 .5.5 0 01.4 1z"/></symbol><symbol id="envelope-hover-1" viewBox="0 0 43 32"><path  d="M38.7 0H4C1.9 0 0 1.9 0 4v24c0 2.1 1.9 4 4 4h34.7c2.1 0 4-1.9 4-4V4c0-2.1-1.9-4-4-4zm0 2.7h.5L21.3 18 3.5 2.7h35.2zm0 26.6H4c-.7 0-1.3-.6-1.3-1.3V5.6l17.8 15.5.8.2.8-.2L40 5.3v22.4c0 .8-.5 1.4-1.3 1.4z"/></symbol><symbol id="smartphone-1" viewBox="0 0 20 32"><path  d="M17 0H3a3 3 0 00-3 3v26a3 3 0 003 3h14a3 3 0 003-3V3a3 3 0 00-3-3zM3 2h14c.6 0 1 .4 1 1v21H2V3c0-.6.4-1 1-1zm14 28H3a1 1 0 01-1-1v-3h16v3c0 .6-.4 1-1 1z"/><path d="M4.8 27.4v1.4c-.4.4-1.2.4-1.6 0a.8.8 0 010-1.4c.4-.2 1.2-.2 1.6 0z"/></symbol></defs></svg>